<?xml version="1.0" encoding="iso-8859-1"?>
<!-- Uploaded to: SVG Repo, www.svgrepo.com, Generator: SVG Repo Mixer Tools -->
<svg fill="#000000" height="800px" width="800px" version="1.1" id="Capa_1" xmlns="http://www.w3.org/2000/svg" xmlns:xlink="http://www.w3.org/1999/xlink" 
	 viewBox="0 0 429.503 429.503" xml:space="preserve">
<g>
	<g id="Layer_5_22_">
		<g>
			<path d="M424.518,144.602c-2.568-3.824-14.248-19.596-67.203-83.094c-10.619-12.733-26.499-20.336-42.48-20.336
				c-12.912,0-24.656,4.819-33.961,13.937c-22.492,22.038-43.432,32.75-64.017,32.751c-20.692,0-43.101-10.801-68.509-33.02
				c-9.701-8.484-21.59-12.971-34.377-12.971c-16.141,0-31.367,7.158-41.773,19.639c-52.953,63.494-64.635,79.268-67.203,83.094
				c-6.606,7.255-6.682,18.805-0.092,26.061l41.342,46.626c3.405,3.75,8.193,5.902,13.137,5.902c4.757,0,9.205-1.888,12.598-5.333
				c0,0,8.446-6.893,8.446,6.107c0,37.447,0,149.789,0,149.789c0,10.619,8.503,14.578,13.862,14.578H335.43
				c5.489,0,13.657-4.273,13.657-16.049c0,0,0-112.239,0-149.652c0-12.666,8.453-4.768,8.453-4.768
				c3.393,3.44,7.838,5.327,12.592,5.327l0,0c4.943,0,9.73-2.152,13.19-5.964l41.232-46.504
				C431.196,163.408,431.123,151.856,424.518,144.602z M300.18,210.19h-14.481c0,0-3.234,0.048-3.234,2.562
				c0,3.789,0,15.155,0,15.155c0,7.105-5.761,12.866-12.865,12.866c-7.106,0-12.866-5.761-12.866-12.866c0,0,0-11.217,0-14.954
				c0-3.017-2.797-2.763-2.797-2.763h-14.919c-7.105,0-12.865-5.76-12.865-12.865c0-7.106,5.76-12.866,12.865-12.866h14.518
				c0,0,3.198,0.147,3.198-2.968c0-3.688,0-14.748,0-14.748c0-7.105,5.76-12.866,12.866-12.866c7.104,0,12.865,5.761,12.865,12.866
				c0,0,0,11.814,0,15.753c0,2.11,2.731,1.963,2.731,1.963h14.984c7.106,0,12.866,5.76,12.866,12.866
				C313.046,204.43,307.286,210.19,300.18,210.19z"/>
		</g>
	</g>
</g>
</svg>