<?xml version="1.0" encoding="iso-8859-1"?>
<!-- Uploaded to: SVG Repo, www.svgrepo.com, Generator: SVG Repo Mixer Tools -->
<!DOCTYPE svg PUBLIC "-//W3C//DTD SVG 1.1//EN" "http://www.w3.org/Graphics/SVG/1.1/DTD/svg11.dtd">
<svg fill="#000000" height="800px" width="800px" version="1.1" id="Capa_1" xmlns="http://www.w3.org/2000/svg" xmlns:xlink="http://www.w3.org/1999/xlink" 
	 viewBox="0 0 211.605 211.605" xml:space="preserve">
<path d="M146.771,49.923H64.834C29.027,49.923,0,78.95,0,114.757v41.475c0,3.01,2.44,5.451,5.451,5.451
	c1.338,0,2.635-0.481,3.622-1.384c16.457-15.054,53.572-25.553,96.73-25.553c43.158,0,80.273,10.499,96.73,25.553
	c0.987,0.903,2.284,1.384,3.622,1.384c3.01,0,5.451-2.44,5.451-5.451v-41.475C211.605,78.95,182.578,49.923,146.771,49.923z
	 M126.815,101.787l-11.149,0.01v11.149c0,3.704-3.003,6.707-6.707,6.707h-6.314c-3.704,0-6.707-3.003-6.707-6.707v-11.131
	l-11.131,0.01c-3.704,0.003-6.71-2.997-6.713-6.701l-0.006-6.314c-0.003-3.704,2.997-6.71,6.701-6.713l11.149-0.01V70.939
	c0-3.704,3.003-6.707,6.707-6.707h6.314c3.704,0,6.707,3.003,6.707,6.707V82.07l11.131-0.01c3.704-0.003,6.71,2.997,6.713,6.701
	l0.006,6.314C133.519,98.778,130.519,101.783,126.815,101.787z"/>
</svg>